<svg xmlns="http://www.w3.org/2000/svg" xmlns:xlink="http://www.w3.org/1999/xlink" width="1111" height="694" version="1.1">
<style type="text/css">
.l0{
  fill: #000000;
  stroke: #000000;
  stroke-linecap:round;
  stroke-linejoin:round;
  stroke-width: 0.590444;
}
.l1{
  fill: #00ddff;
  stroke: #00ddff;
  stroke-linecap:round;
  stroke-linejoin:round;
  stroke-width: 0.590444;
}
.l2{
  fill: #4f4f4f; fill-opacity: 0.2;
  stroke: #4f4f4f;
  stroke-linecap:round;
  stroke-linejoin:round;
  stroke-width: 0.590444;
}
.l3{
  fill: #cccccc; fill-opacity: 0.5;
  stroke: #cccccc;
  stroke-linecap:round;
  stroke-linejoin:round;
  stroke-width: 0.590444;
}
.l4{
  fill: #88dd00;
  stroke: #88dd00;
  stroke-linecap:round;
  stroke-linejoin:round;
  stroke-width: 0.590444;
}
.l5{
  fill: #bb2200;
  stroke: #bb2200;
  stroke-linecap:round;
  stroke-linejoin:round;
  stroke-width: 0.590444;
}
.l6{
  fill: #00aaff; fill-opacity: 0.5;
  stroke: #00aaff;
  stroke-linecap:round;
  stroke-linejoin:round;
  stroke-width: 0.590444;
}
.l7{
  fill: #ff0000; fill-opacity: 0.5;
  stroke: #ff0000;
  stroke-linecap:round;
  stroke-linejoin:round;
  stroke-width: 0.590444;
}
.l8{
  fill: #ffff00; fill-opacity: 0.5;
  stroke: #ffff00;
  stroke-linecap:round;
  stroke-linejoin:round;
  stroke-width: 0.590444;
}
.l9{
  fill: #ffffff; fill-opacity: 0.5;
  stroke: #ffffff;
  stroke-linecap:round;
  stroke-linejoin:round;
  stroke-width: 0.590444;
}
.l10{
  fill: #ff00ff;
  stroke: #ff00ff;
  stroke-linecap:round;
  stroke-linejoin:round;
  stroke-width: 0.590444;
}
.l11{
  fill: #00ff00; fill-opacity: 0.5;
  stroke: #00ff00;
  stroke-linecap:round;
  stroke-linejoin:round;
  stroke-width: 0.590444;
}
.l12{
  fill: #0044ff; fill-opacity: 0.5;
  stroke: #0044ff;
  stroke-linecap:round;
  stroke-linejoin:round;
  stroke-width: 0.590444;
}
.l13{
  fill: #aaaa00; fill-opacity: 0.5;
  stroke: #aaaa00;
  stroke-linecap:round;
  stroke-linejoin:round;
  stroke-width: 0.590444;
}
.l14{
  fill: #aaccaa; fill-opacity: 0.2;
  stroke: #aaccaa;
  stroke-linecap:round;
  stroke-linejoin:round;
  stroke-width: 0.590444;
}
.l15{
  fill: #ff7777; fill-opacity: 0.5;
  stroke: #ff7777;
  stroke-linecap:round;
  stroke-linejoin:round;
  stroke-width: 0.590444;
}
.l16{
  fill: #bfff81; fill-opacity: 0.5;
  stroke: #bfff81;
  stroke-linecap:round;
  stroke-linejoin:round;
  stroke-width: 0.590444;
}
.l17{
  fill: #00ffcc; fill-opacity: 0.2;
  stroke: #00ffcc;
  stroke-linecap:round;
  stroke-linejoin:round;
  stroke-width: 0.590444;
}
.l18{
  fill: #ce0097; fill-opacity: 0.5;
  stroke: #ce0097;
  stroke-linecap:round;
  stroke-linejoin:round;
  stroke-width: 0.590444;
}
.l19{
  fill: #d2d46b; fill-opacity: 0.2;
  stroke: #d2d46b;
  stroke-linecap:round;
  stroke-linejoin:round;
  stroke-width: 0.590444;
}
.l20{
  fill: #ef6158; fill-opacity: 0.2;
  stroke: #ef6158;
  stroke-linecap:round;
  stroke-linejoin:round;
  stroke-width: 0.590444;
}
.l21{
  fill: #fdb200; fill-opacity: 0.2;
  stroke: #fdb200;
  stroke-linecap:round;
  stroke-linejoin:round;
  stroke-width: 0.590444;
}
text {font-family: Sans-Serif;}
</style>
<rect class="l0" x="0" y="0" width="1111" height="694"/>
<path class="l4" d="M50.5609 464.907L52.7477 464.907"/>
<path class="l4" d="M51.6543 463.814L51.6543 466"/>
<path class="l4" d="M49.4675 461.627L49.4675 487.869"/>
<circle class="l4" cx="49.4675" cy="474.748" r="6.56049" style="fill:none;" />
<path class="l4" d="M24.3189 561.128L26.5057 561.128"/>
<path class="l4" d="M25.4123 560.034L25.4123 562.221"/>
<path class="l4" d="M23.2255 557.847L23.2255 584.089"/>
<circle class="l4" cx="23.2255" cy="570.968" r="6.56049" style="fill:none;" />
<path class="l4" d="M492.301 438.665L494.487 438.665"/>
<path class="l4" d="M493.394 437.572L493.394 439.758"/>
<path class="l4" d="M491.207 435.385L491.207 461.627"/>
<circle class="l4" cx="491.207" cy="448.506" r="6.56049" style="fill:none;" />
<path class="l4" d="M492.301 530.512L494.487 530.512"/>
<path class="l4" d="M493.394 529.418L493.394 531.605"/>
<path class="l4" d="M491.207 527.232L491.207 553.474"/>
<circle class="l4" cx="491.207" cy="540.353" r="6.56049" style="fill:none;" />
<path class="l4" d="M492.301 617.985L494.487 617.985"/>
<path class="l4" d="M493.394 616.892L493.394 619.079"/>
<path class="l4" d="M491.207 614.705L491.207 640.947"/>
<circle class="l4" cx="491.207" cy="627.826" r="6.56049" style="fill:none;" />
<path class="l4" d="M1059.78 461.627L1059.78 466"/>
<path class="l4" d="M1059.78 461.627L1063.06 460.533"/>
<path class="l4" d="M1056.5 458.346L1063.06 460.533"/>
<path class="l4" d="M1056.5 458.346L1063.06 456.16"/>
<path class="l4" d="M1056.5 453.973L1063.06 456.16"/>
<path class="l4" d="M1056.5 453.973L1063.06 451.786"/>
<path class="l4" d="M1056.5 449.599L1063.06 451.786"/>
<path class="l4" d="M1056.5 449.599L1063.06 447.412"/>
<path class="l4" d="M1056.5 445.225L1063.06 447.412"/>
<path class="l4" d="M1056.5 445.225L1059.78 444.132"/>
<path class="l4" d="M1059.78 439.758L1059.78 444.132"/>
<path class="l4" d="M1060.88 443.039L1063.06 443.039"/>
<path class="l4" d="M1061.97 441.945L1061.97 444.132"/>
<path class="l4" d="M1059.78 531.605L1059.78 535.979"/>
<path class="l4" d="M1059.78 531.605L1063.06 530.512"/>
<path class="l4" d="M1056.5 528.325L1063.06 530.512"/>
<path class="l4" d="M1056.5 528.325L1063.06 526.138"/>
<path class="l4" d="M1056.5 523.951L1063.06 526.138"/>
<path class="l4" d="M1056.5 523.951L1063.06 521.765"/>
<path class="l4" d="M1056.5 519.578L1063.06 521.765"/>
<path class="l4" d="M1056.5 519.578L1063.06 517.391"/>
<path class="l4" d="M1056.5 515.204L1063.06 517.391"/>
<path class="l4" d="M1056.5 515.204L1059.78 514.111"/>
<path class="l4" d="M1059.78 509.737L1059.78 514.111"/>
<path class="l4" d="M1060.88 513.017L1063.06 513.017"/>
<path class="l4" d="M1061.97 511.924L1061.97 514.111"/>
<path class="l4" d="M1068.53 595.023L1068.53 605.958"/>
<path class="l4" d="M1068.53 579.716L1068.53 590.65"/>
<path class="l4" d="M1064.16 590.65L1072.9 590.65"/>
<path class="l4" d="M1064.16 595.023L1072.9 595.023"/>
<path class="l4" d="M1069.62 582.996L1071.81 582.996"/>
<path class="l4" d="M1070.72 581.902L1070.72 584.089"/>
<path class="l4" d="M1059.78 665.002L1059.78 675.936"/>
<path class="l4" d="M1059.78 649.694L1059.78 660.628"/>
<path class="l4" d="M1055.41 660.628L1064.16 660.628"/>
<path class="l4" d="M1055.41 665.002L1064.16 665.002"/>
<path class="l4" d="M1060.88 652.974L1063.06 652.974"/>
<path class="l4" d="M1061.97 651.881L1061.97 654.068"/>
<path class="l4" d="M645.379 486.775L645.379 506.457"/>
<path class="l4" d="M647.566 496.616L657.406 496.616"/>
<path class="l4" d="M639.912 483.495L639.912 488.962"/>
<path class="l4" d="M639.912 504.27L639.912 509.737"/>
<path class="l4" d="M647.566 490.056L647.566 503.176"/>
<path class="l4" d="M639.912 488.962L645.379 488.962"/>
<path class="l4" d="M642.098 504.27L645.379 504.27"/>
<path class="l4" d="M642.098 503.176L639.912 504.27L642.098 505.363L642.098 503.176"/>
<path class="l4" d="M581.961 478.028L581.961 497.709"/>
<path class="l4" d="M569.933 487.869L579.774 487.869"/>
<path class="l4" d="M587.428 474.748L587.428 480.215"/>
<path class="l4" d="M587.428 495.523L587.428 500.99"/>
<path class="l4" d="M579.774 481.308L579.774 494.429"/>
<path class="l4" d="M581.961 480.215L587.428 480.215"/>
<path class="l4" d="M581.961 495.523L585.241 495.523"/>
<path class="l4" d="M585.241 494.429L587.428 495.523L585.241 496.616L585.241 494.429"/>
<path class="l4" d="M662.873 574.248L662.873 593.93"/>
<path class="l4" d="M665.06 584.089L674.901 584.089"/>
<path class="l4" d="M657.406 570.968L657.406 576.435"/>
<path class="l4" d="M657.406 591.743L657.406 597.21"/>
<path class="l4" d="M665.06 577.529L665.06 590.65"/>
<path class="l4" d="M657.406 576.435L662.873 576.435"/>
<path class="l4" d="M659.593 591.743L662.873 591.743"/>
<path class="l4" d="M659.593 590.65L657.406 591.743L659.593 592.837L659.593 590.65"/>
<path class="l4" d="M761.281 416.797L761.281 436.478"/>
<path class="l4" d="M766.748 413.516L766.748 418.984"/>
<path class="l4" d="M766.748 434.291L766.748 439.758"/>
<path class="l4" d="M759.094 420.077L759.094 433.198"/>
<path class="l4" d="M761.281 434.291L766.748 434.291"/>
<path class="l4" d="M763.468 418.984L766.748 418.984"/>
<path class="l4" d="M749.253 426.637L754.72 426.637"/>
<path class="l4" d="M763.468 417.89L761.281 418.984L763.468 420.077L763.468 417.89"/>
<circle class="l4" cx="756.907" cy="426.637" r="2.18683" style="fill:none;" />
<path class="l4" d="M776.589 482.402L776.589 502.083"/>
<path class="l4" d="M771.121 479.121L771.121 484.588"/>
<path class="l4" d="M771.121 499.896L771.121 505.363"/>
<path class="l4" d="M778.775 485.682L778.775 498.803"/>
<path class="l4" d="M771.121 499.896L776.589 499.896"/>
<path class="l4" d="M771.121 484.588L774.402 484.588"/>
<path class="l4" d="M783.149 492.242L788.616 492.242"/>
<path class="l4" d="M774.402 483.495L776.589 484.588L774.402 485.682L774.402 483.495"/>
<circle class="l4" cx="780.962" cy="492.242" r="2.18683" style="fill:none;" />
<path class="l4" d="M826.886 429.918L826.886 449.599"/>
<path class="l4" d="M814.858 439.758L824.699 439.758"/>
<path class="l4" d="M832.353 426.637L832.353 432.105"/>
<path class="l4" d="M832.353 447.412L832.353 452.879"/>
<path class="l4" d="M824.699 433.198L824.699 446.319"/>
<path class="l4" d="M826.886 432.105L832.353 432.105"/>
<path class="l4" d="M826.886 447.412L830.166 447.412"/>
<path class="l4" d="M830.166 446.319L832.353 447.412L830.166 448.506L830.166 446.319"/>
<path class="l4" d="M811.578 521.765L811.578 541.446"/>
<path class="l4" d="M813.765 531.605L823.605 531.605"/>
<path class="l4" d="M806.111 518.484L806.111 523.951"/>
<path class="l4" d="M806.111 539.259L806.111 544.726"/>
<path class="l4" d="M813.765 525.045L813.765 538.166"/>
<path class="l4" d="M806.111 523.951L811.578 523.951"/>
<path class="l4" d="M808.298 539.259L811.578 539.259"/>
<path class="l4" d="M808.298 538.166L806.111 539.259L808.298 540.353L808.298 538.166"/>
<path class="l4" d="M702.236 443.039L702.236 462.72"/>
<path class="l4" d="M696.769 439.758L696.769 445.225"/>
<path class="l4" d="M696.769 460.533L696.769 466"/>
<path class="l4" d="M704.423 446.319L704.423 459.44"/>
<path class="l4" d="M696.769 460.533L702.236 460.533"/>
<path class="l4" d="M696.769 445.225L700.049 445.225"/>
<path class="l4" d="M708.797 452.879L714.264 452.879"/>
<path class="l4" d="M700.049 444.132L702.236 445.225L700.049 446.319L700.049 444.132"/>
<circle class="l4" cx="706.61" cy="452.879" r="2.18683" style="fill:none;" />
<path class="l4" d="M719.731 521.765L719.731 541.446"/>
<path class="l4" d="M714.264 518.484L714.264 523.951"/>
<path class="l4" d="M714.264 539.259L714.264 544.726"/>
<path class="l4" d="M721.918 525.045L721.918 538.166"/>
<path class="l4" d="M714.264 539.259L719.731 539.259"/>
<path class="l4" d="M714.264 523.951L717.544 523.951"/>
<path class="l4" d="M726.291 531.605L731.759 531.605"/>
<path class="l4" d="M717.544 522.858L719.731 523.951L717.544 525.045L717.544 522.858"/>
<circle class="l4" cx="724.105" cy="531.605" r="2.18683" style="fill:none;" />
<path class="l4" d="M822.512 377.434L822.512 397.115"/>
<path class="l4" d="M827.979 374.154L827.979 379.621"/>
<path class="l4" d="M827.979 394.928L827.979 400.395"/>
<path class="l4" d="M820.325 380.714L820.325 393.835"/>
<path class="l4" d="M822.512 394.928L827.979 394.928"/>
<path class="l4" d="M824.699 379.621L827.979 379.621"/>
<path class="l4" d="M810.484 387.274L815.951 387.274"/>
<path class="l4" d="M824.699 378.527L822.512 379.621L824.699 380.714L824.699 378.527"/>
<circle class="l4" cx="818.138" cy="387.274" r="2.18683" style="fill:none;" />
<path class="l4" d="M888.117 408.049L888.117 427.731"/>
<path class="l4" d="M893.584 404.769L893.584 410.236"/>
<path class="l4" d="M893.584 425.544L893.584 431.011"/>
<path class="l4" d="M885.93 411.33L885.93 424.451"/>
<path class="l4" d="M888.117 425.544L893.584 425.544"/>
<path class="l4" d="M890.304 410.236L893.584 410.236"/>
<path class="l4" d="M876.089 417.89L881.556 417.89"/>
<path class="l4" d="M890.304 409.143L888.117 410.236L890.304 411.33L890.304 409.143"/>
<circle class="l4" cx="883.743" cy="417.89" r="2.18683" style="fill:none;" />
<path class="l4" d="M770.028 333.697L770.028 353.379"/>
<path class="l4" d="M775.495 330.417L775.495 335.884"/>
<path class="l4" d="M775.495 351.192L775.495 356.659"/>
<path class="l4" d="M767.841 336.977L767.841 350.098"/>
<path class="l4" d="M770.028 351.192L775.495 351.192"/>
<path class="l4" d="M772.215 335.884L775.495 335.884"/>
<path class="l4" d="M758 343.538L763.468 343.538"/>
<path class="l4" d="M772.215 334.791L770.028 335.884L772.215 336.977L772.215 334.791"/>
<circle class="l4" cx="765.654" cy="343.538" r="2.18683" style="fill:none;" />
<path class="l4" d="M713.17 377.434L713.17 397.115"/>
<path class="l4" d="M701.143 387.274L710.984 387.274"/>
<path class="l4" d="M718.638 374.154L718.638 379.621"/>
<path class="l4" d="M718.638 394.928L718.638 400.395"/>
<path class="l4" d="M710.984 380.714L710.984 393.835"/>
<path class="l4" d="M713.17 379.621L718.638 379.621"/>
<path class="l4" d="M713.17 394.928L716.451 394.928"/>
<path class="l4" d="M716.451 393.835L718.638 394.928L716.451 396.022L716.451 393.835"/>
<path class="l4" d="M879.37 469.281L879.37 488.962"/>
<path class="l4" d="M884.837 466L884.837 471.467"/>
<path class="l4" d="M884.837 486.775L884.837 492.242"/>
<path class="l4" d="M877.183 472.561L877.183 485.682"/>
<path class="l4" d="M879.37 486.775L884.837 486.775"/>
<path class="l4" d="M881.556 471.467L884.837 471.467"/>
<path class="l4" d="M867.342 479.121L872.809 479.121"/>
<path class="l4" d="M881.556 470.374L879.37 471.467L881.556 472.561L881.556 470.374"/>
<circle class="l4" cx="874.996" cy="479.121" r="2.18683" style="fill:none;" />
<path class="l4" d="M936.227 521.765L936.227 541.446"/>
<path class="l4" d="M924.2 531.605L934.04 531.605"/>
<path class="l4" d="M941.694 518.484L941.694 523.951"/>
<path class="l4" d="M941.694 539.259L941.694 544.726"/>
<path class="l4" d="M934.04 525.045L934.04 538.166"/>
<path class="l4" d="M936.227 523.951L941.694 523.951"/>
<path class="l4" d="M936.227 539.259L939.507 539.259"/>
<path class="l4" d="M939.507 538.166L941.694 539.259L939.507 540.353L939.507 538.166"/>
<path class="l4" d="M49.4675 452.879L49.4675 461.627"/>
<path class="l4" d="M45.0938 452.879L53.8411 452.879"/>
<path class="l4" d="M758 431.011L758 439.758"/>
<path class="l4" d="M753.627 431.011L762.374 431.011"/>
<path class="l4" d="M766.748 417.89L766.748 426.637"/>
<path class="l4" d="M762.374 417.89L771.121 417.89"/>
<path class="l4" d="M779.869 496.616L779.869 505.363"/>
<path class="l4" d="M775.495 496.616L784.242 496.616"/>
<path class="l4" d="M771.121 483.495L771.121 492.242"/>
<path class="l4" d="M766.748 483.495L775.495 483.495"/>
<path class="l4" d="M705.517 457.253L705.517 466"/>
<path class="l4" d="M701.143 457.253L709.89 457.253"/>
<path class="l4" d="M696.769 444.132L696.769 452.879"/>
<path class="l4" d="M692.396 444.132L701.143 444.132"/>
<path class="l4" d="M723.011 535.979L723.011 544.726"/>
<path class="l4" d="M718.638 535.979L727.385 535.979"/>
<path class="l4" d="M714.264 522.858L714.264 531.605"/>
<path class="l4" d="M709.89 522.858L718.638 522.858"/>
<path class="l4" d="M819.232 391.648L819.232 400.395"/>
<path class="l4" d="M814.858 391.648L823.605 391.648"/>
<path class="l4" d="M827.979 378.527L827.979 387.274"/>
<path class="l4" d="M823.605 378.527L832.353 378.527"/>
<path class="l4" d="M884.837 422.264L884.837 431.011"/>
<path class="l4" d="M880.463 422.264L889.21 422.264"/>
<path class="l4" d="M893.584 409.143L893.584 417.89"/>
<path class="l4" d="M889.21 409.143L897.958 409.143"/>
<path class="l4" d="M766.748 347.912L766.748 356.659"/>
<path class="l4" d="M762.374 347.912L771.121 347.912"/>
<path class="l4" d="M775.495 334.791L775.495 343.538"/>
<path class="l4" d="M771.121 334.791L779.869 334.791"/>
<path class="l4" d="M876.089 483.495L876.089 492.242"/>
<path class="l4" d="M871.716 483.495L880.463 483.495"/>
<path class="l4" d="M884.837 470.374L884.837 479.121"/>
<path class="l4" d="M880.463 470.374L889.21 470.374"/>
<path class="l4" d="M49.4675 487.869L49.4675 493.336"/>
<path class="l4" d="M47.2806 493.336L51.6543 493.336"/>
<path class="l4" d="M49.4675 495.523L51.6543 493.336"/>
<path class="l4" d="M47.2806 493.336L49.4675 495.523"/>
<path class="l4" d="M23.2255 584.089L23.2255 589.556"/>
<path class="l4" d="M21.0387 589.556L25.4123 589.556"/>
<path class="l4" d="M23.2255 591.743L25.4123 589.556"/>
<path class="l4" d="M21.0387 589.556L23.2255 591.743"/>
<path class="l4" d="M491.207 461.627L491.207 467.094"/>
<path class="l4" d="M489.02 467.094L493.394 467.094"/>
<path class="l4" d="M491.207 469.281L493.394 467.094"/>
<path class="l4" d="M489.02 467.094L491.207 469.281"/>
<path class="l4" d="M491.207 553.474L491.207 558.941"/>
<path class="l4" d="M489.02 558.941L493.394 558.941"/>
<path class="l4" d="M491.207 561.128L493.394 558.941"/>
<path class="l4" d="M489.02 558.941L491.207 561.128"/>
<path class="l4" d="M491.207 640.947L491.207 646.414"/>
<path class="l4" d="M489.02 646.414L493.394 646.414"/>
<path class="l4" d="M491.207 648.601L493.394 646.414"/>
<path class="l4" d="M489.02 646.414L491.207 648.601"/>
<path class="l4" d="M23.2255 557.847L23.2255 563.314"/>
<path class="l4" d="M21.0387 563.314L25.4123 563.314"/>
<path class="l4" d="M23.2255 565.501L25.4123 563.314"/>
<path class="l4" d="M21.0387 563.314L23.2255 565.501"/>
<path class="l4" d="M1068.53 605.958L1068.53 611.425"/>
<path class="l4" d="M1066.34 611.425L1070.72 611.425"/>
<path class="l4" d="M1068.53 613.611L1070.72 611.425"/>
<path class="l4" d="M1066.34 611.425L1068.53 613.611"/>
<path class="l4" d="M1059.78 675.936L1059.78 681.403"/>
<path class="l4" d="M1057.6 681.403L1061.97 681.403"/>
<path class="l4" d="M1059.78 683.59L1061.97 681.403"/>
<path class="l4" d="M1057.6 681.403L1059.78 683.59"/>
<path class="l4" d="M648.659 509.737L648.659 515.204"/>
<path class="l4" d="M646.472 515.204L650.846 515.204"/>
<path class="l4" d="M648.659 517.391L650.846 515.204"/>
<path class="l4" d="M646.472 515.204L648.659 517.391"/>
<path class="l4" d="M639.912 496.616L639.912 502.083"/>
<path class="l4" d="M637.725 502.083L642.098 502.083"/>
<path class="l4" d="M639.912 504.27L642.098 502.083"/>
<path class="l4" d="M637.725 502.083L639.912 504.27"/>
<path class="l4" d="M587.428 487.869L587.428 493.336"/>
<path class="l4" d="M585.241 493.336L589.615 493.336"/>
<path class="l4" d="M587.428 495.523L589.615 493.336"/>
<path class="l4" d="M585.241 493.336L587.428 495.523"/>
<path class="l4" d="M657.406 584.089L657.406 589.556"/>
<path class="l4" d="M655.219 589.556L659.593 589.556"/>
<path class="l4" d="M657.406 591.743L659.593 589.556"/>
<path class="l4" d="M655.219 589.556L657.406 591.743"/>
<path class="l4" d="M832.353 439.758L832.353 445.225"/>
<path class="l4" d="M830.166 445.225L834.54 445.225"/>
<path class="l4" d="M832.353 447.412L834.54 445.225"/>
<path class="l4" d="M830.166 445.225L832.353 447.412"/>
<path class="l4" d="M806.111 531.605L806.111 537.072"/>
<path class="l4" d="M803.924 537.072L808.298 537.072"/>
<path class="l4" d="M806.111 539.259L808.298 537.072"/>
<path class="l4" d="M803.924 537.072L806.111 539.259"/>
<path class="l4" d="M709.89 400.395L709.89 405.863"/>
<path class="l4" d="M707.703 405.863L712.077 405.863"/>
<path class="l4" d="M709.89 408.049L712.077 405.863"/>
<path class="l4" d="M707.703 405.863L709.89 408.049"/>
<path class="l4" d="M718.638 387.274L718.638 392.742"/>
<path class="l4" d="M716.451 392.742L720.824 392.742"/>
<path class="l4" d="M718.638 394.928L720.824 392.742"/>
<path class="l4" d="M716.451 392.742L718.638 394.928"/>
<path class="l4" d="M932.947 544.726L932.947 550.193"/>
<path class="l4" d="M930.76 550.193L935.134 550.193"/>
<path class="l4" d="M932.947 552.38L935.134 550.193"/>
<path class="l4" d="M930.76 550.193L932.947 552.38"/>
<path class="l4" d="M941.694 531.605L941.694 537.072"/>
<path class="l4" d="M939.507 537.072L943.881 537.072"/>
<path class="l4" d="M941.694 539.259L943.881 537.072"/>
<path class="l4" d="M939.507 537.072L941.694 539.259"/>
<path class="l5" d="M48.374 460.533L50.5609 460.533L50.5609 462.72L48.374 462.72L48.374 460.533z"/>
<path class="l5" d="M48.374 486.775L50.5609 486.775L50.5609 488.962L48.374 488.962L48.374 486.775z"/>
<path class="l5" d="M22.1321 556.754L24.3189 556.754L24.3189 558.941L22.1321 558.941L22.1321 556.754z"/>
<path class="l5" d="M22.1321 582.996L24.3189 582.996L24.3189 585.183L22.1321 585.183L22.1321 582.996z"/>
<path class="l5" d="M490.114 434.291L492.301 434.291L492.301 436.478L490.114 436.478L490.114 434.291z"/>
<path class="l5" d="M490.114 460.533L492.301 460.533L492.301 462.72L490.114 462.72L490.114 460.533z"/>
<path class="l5" d="M490.114 526.138L492.301 526.138L492.301 528.325L490.114 528.325L490.114 526.138z"/>
<path class="l5" d="M490.114 552.38L492.301 552.38L492.301 554.567L490.114 554.567L490.114 552.38z"/>
<path class="l5" d="M490.114 613.611L492.301 613.611L492.301 615.798L490.114 615.798L490.114 613.611z"/>
<path class="l5" d="M490.114 639.853L492.301 639.853L492.301 642.04L490.114 642.04L490.114 639.853z"/>
<path class="l5" d="M1058.69 438.665L1060.88 438.665L1060.88 440.852L1058.69 440.852L1058.69 438.665z"/>
<path class="l5" d="M1058.69 464.907L1060.88 464.907L1060.88 467.094L1058.69 467.094L1058.69 464.907z"/>
<path class="l5" d="M1058.69 508.644L1060.88 508.644L1060.88 510.83L1058.69 510.83L1058.69 508.644z"/>
<path class="l5" d="M1058.69 534.886L1060.88 534.886L1060.88 537.072L1058.69 537.072L1058.69 534.886z"/>
<path class="l5" d="M1067.44 578.622L1069.62 578.622L1069.62 580.809L1067.44 580.809L1067.44 578.622z"/>
<path class="l5" d="M1067.44 604.864L1069.62 604.864L1069.62 607.051L1067.44 607.051L1067.44 604.864z"/>
<path class="l5" d="M1058.69 648.601L1060.88 648.601L1060.88 650.788L1058.69 650.788L1058.69 648.601z"/>
<path class="l5" d="M1058.69 674.843L1060.88 674.843L1060.88 677.03L1058.69 677.03L1058.69 674.843z"/>
<path class="l5" d="M639.912 495.523L642.098 496.616L639.912 497.709L639.912 495.523"/>
<path class="l5" d="M638.818 482.402L641.005 482.402L641.005 484.588L638.818 484.588L638.818 482.402z"/>
<path class="l5" d="M656.313 495.523L658.5 495.523L658.5 497.709L656.313 497.709L656.313 495.523z"/>
<path class="l5" d="M638.818 508.644L641.005 508.644L641.005 510.83L638.818 510.83L638.818 508.644z"/>
<path class="l5" d="M639.877 496.582L639.946 496.582L639.946 496.65L639.877 496.65L639.877 496.582z"/>
<path class="l5" d="M587.428 486.775L585.241 487.869L587.428 488.962L587.428 486.775"/>
<path class="l5" d="M586.334 473.654L588.521 473.654L588.521 475.841L586.334 475.841L586.334 473.654z"/>
<path class="l5" d="M568.84 486.775L571.026 486.775L571.026 488.962L568.84 488.962L568.84 486.775z"/>
<path class="l5" d="M586.334 499.896L588.521 499.896L588.521 502.083L586.334 502.083L586.334 499.896z"/>
<path class="l5" d="M587.394 487.835L587.462 487.835L587.462 487.903L587.394 487.903L587.394 487.835z"/>
<path class="l5" d="M657.406 582.996L659.593 584.089L657.406 585.183L657.406 582.996"/>
<path class="l5" d="M656.313 569.875L658.5 569.875L658.5 572.062L656.313 572.062L656.313 569.875z"/>
<path class="l5" d="M673.808 582.996L675.994 582.996L675.994 585.183L673.808 585.183L673.808 582.996z"/>
<path class="l5" d="M656.313 596.117L658.5 596.117L658.5 598.304L656.313 598.304L656.313 596.117z"/>
<path class="l5" d="M657.372 584.055L657.44 584.055L657.44 584.123L657.372 584.123L657.372 584.055z"/>
<path class="l5" d="M764.561 425.544L766.748 426.637L764.561 427.731L764.561 425.544"/>
<path class="l5" d="M765.654 438.665L767.841 438.665L767.841 440.852L765.654 440.852L765.654 438.665z"/>
<path class="l5" d="M748.16 425.544L750.347 425.544L750.347 427.731L748.16 427.731L748.16 425.544z"/>
<path class="l5" d="M765.654 412.423L767.841 412.423L767.841 414.61L765.654 414.61L765.654 412.423z"/>
<path class="l5" d="M766.714 426.603L766.782 426.603L766.782 426.672L766.714 426.672L766.714 426.603z"/>
<path class="l5" d="M773.308 491.149L771.121 492.242L773.308 493.336L773.308 491.149"/>
<path class="l5" d="M770.028 504.27L772.215 504.27L772.215 506.457L770.028 506.457L770.028 504.27z"/>
<path class="l5" d="M787.523 491.149L789.71 491.149L789.71 493.336L787.523 493.336L787.523 491.149z"/>
<path class="l5" d="M770.028 478.028L772.215 478.028L772.215 480.215L770.028 480.215L770.028 478.028z"/>
<path class="l5" d="M771.087 492.208L771.156 492.208L771.156 492.277L771.087 492.277L771.087 492.208z"/>
<path class="l5" d="M832.353 438.665L830.166 439.758L832.353 440.852L832.353 438.665"/>
<path class="l5" d="M831.259 425.544L833.446 425.544L833.446 427.731L831.259 427.731L831.259 425.544z"/>
<path class="l5" d="M813.765 438.665L815.951 438.665L815.951 440.852L813.765 440.852L813.765 438.665z"/>
<path class="l5" d="M831.259 451.786L833.446 451.786L833.446 453.973L831.259 453.973L831.259 451.786z"/>
<path class="l5" d="M832.319 439.724L832.387 439.724L832.387 439.793L832.319 439.793L832.319 439.724z"/>
<path class="l5" d="M806.111 530.512L808.298 531.605L806.111 532.699L806.111 530.512"/>
<path class="l5" d="M805.017 517.391L807.204 517.391L807.204 519.578L805.017 519.578L805.017 517.391z"/>
<path class="l5" d="M822.512 530.512L824.699 530.512L824.699 532.699L822.512 532.699L822.512 530.512z"/>
<path class="l5" d="M805.017 543.633L807.204 543.633L807.204 545.82L805.017 545.82L805.017 543.633z"/>
<path class="l5" d="M806.077 531.571L806.145 531.571L806.145 531.639L806.077 531.639L806.077 531.571z"/>
<path class="l5" d="M698.956 451.786L696.769 452.879L698.956 453.973L698.956 451.786"/>
<path class="l5" d="M695.676 464.907L697.863 464.907L697.863 467.094L695.676 467.094L695.676 464.907z"/>
<path class="l5" d="M713.17 451.786L715.357 451.786L715.357 453.973L713.17 453.973L713.17 451.786z"/>
<path class="l5" d="M695.676 438.665L697.863 438.665L697.863 440.852L695.676 440.852L695.676 438.665z"/>
<path class="l5" d="M696.735 452.845L696.803 452.845L696.803 452.914L696.735 452.914L696.735 452.845z"/>
<path class="l5" d="M716.451 530.512L714.264 531.605L716.451 532.699L716.451 530.512"/>
<path class="l5" d="M713.17 543.633L715.357 543.633L715.357 545.82L713.17 545.82L713.17 543.633z"/>
<path class="l5" d="M730.665 530.512L732.852 530.512L732.852 532.699L730.665 532.699L730.665 530.512z"/>
<path class="l5" d="M713.17 517.391L715.357 517.391L715.357 519.578L713.17 519.578L713.17 517.391z"/>
<path class="l5" d="M714.23 531.571L714.298 531.571L714.298 531.639L714.23 531.639L714.23 531.571z"/>
<path class="l5" d="M825.792 386.181L827.979 387.274L825.792 388.368L825.792 386.181"/>
<path class="l5" d="M826.886 399.302L829.072 399.302L829.072 401.489L826.886 401.489L826.886 399.302z"/>
<path class="l5" d="M809.391 386.181L811.578 386.181L811.578 388.368L809.391 388.368L809.391 386.181z"/>
<path class="l5" d="M826.886 373.06L829.072 373.06L829.072 375.247L826.886 375.247L826.886 373.06z"/>
<path class="l5" d="M827.945 387.24L828.013 387.24L828.013 387.309L827.945 387.309L827.945 387.24z"/>
<path class="l5" d="M891.397 416.797L893.584 417.89L891.397 418.984L891.397 416.797"/>
<path class="l5" d="M892.491 429.918L894.677 429.918L894.677 432.105L892.491 432.105L892.491 429.918z"/>
<path class="l5" d="M874.996 416.797L877.183 416.797L877.183 418.984L874.996 418.984L874.996 416.797z"/>
<path class="l5" d="M892.491 403.676L894.677 403.676L894.677 405.863L892.491 405.863L892.491 403.676z"/>
<path class="l5" d="M893.55 417.856L893.618 417.856L893.618 417.924L893.55 417.924L893.55 417.856z"/>
<path class="l5" d="M773.308 342.444L775.495 343.538L773.308 344.631L773.308 342.444"/>
<path class="l5" d="M774.402 355.565L776.589 355.565L776.589 357.752L774.402 357.752L774.402 355.565z"/>
<path class="l5" d="M756.907 342.444L759.094 342.444L759.094 344.631L756.907 344.631L756.907 342.444z"/>
<path class="l5" d="M774.402 329.323L776.589 329.323L776.589 331.51L774.402 331.51L774.402 329.323z"/>
<path class="l5" d="M775.461 343.504L775.529 343.504L775.529 343.572L775.461 343.572L775.461 343.504z"/>
<path class="l5" d="M718.638 386.181L716.451 387.274L718.638 388.368L718.638 386.181"/>
<path class="l5" d="M717.544 373.06L719.731 373.06L719.731 375.247L717.544 375.247L717.544 373.06z"/>
<path class="l5" d="M700.049 386.181L702.236 386.181L702.236 388.368L700.049 388.368L700.049 386.181z"/>
<path class="l5" d="M717.544 399.302L719.731 399.302L719.731 401.489L717.544 401.489L717.544 399.302z"/>
<path class="l5" d="M718.603 387.24L718.672 387.24L718.672 387.309L718.603 387.309L718.603 387.24z"/>
<path class="l5" d="M882.65 478.028L884.837 479.121L882.65 480.215L882.65 478.028"/>
<path class="l5" d="M883.743 491.149L885.93 491.149L885.93 493.336L883.743 493.336L883.743 491.149z"/>
<path class="l5" d="M866.249 478.028L868.435 478.028L868.435 480.215L866.249 480.215L866.249 478.028z"/>
<path class="l5" d="M883.743 464.907L885.93 464.907L885.93 467.094L883.743 467.094L883.743 464.907z"/>
<path class="l5" d="M884.802 479.087L884.871 479.087L884.871 479.156L884.802 479.156L884.802 479.087z"/>
<path class="l5" d="M941.694 530.512L939.507 531.605L941.694 532.699L941.694 530.512"/>
<path class="l5" d="M940.601 517.391L942.788 517.391L942.788 519.578L940.601 519.578L940.601 517.391z"/>
<path class="l5" d="M923.106 530.512L925.293 530.512L925.293 532.699L923.106 532.699L923.106 530.512z"/>
<path class="l5" d="M940.601 543.633L942.788 543.633L942.788 545.82L940.601 545.82L940.601 543.633z"/>
<path class="l5" d="M941.66 531.571L941.728 531.571L941.728 531.639L941.66 531.639L941.66 531.571z"/>
<path class="l5" d="M48.374 460.533L50.5609 460.533L50.5609 462.72L48.374 462.72L48.374 460.533z"/>
<path class="l5" d="M756.907 438.665L759.094 438.665L759.094 440.852L756.907 440.852L756.907 438.665z"/>
<path class="l5" d="M765.654 425.544L767.841 425.544L767.841 427.731L765.654 427.731L765.654 425.544z"/>
<path class="l5" d="M778.775 504.27L780.962 504.27L780.962 506.457L778.775 506.457L778.775 504.27z"/>
<path class="l5" d="M770.028 491.149L772.215 491.149L772.215 493.336L770.028 493.336L770.028 491.149z"/>
<path class="l5" d="M704.423 464.907L706.61 464.907L706.61 467.094L704.423 467.094L704.423 464.907z"/>
<path class="l5" d="M695.676 451.786L697.863 451.786L697.863 453.973L695.676 453.973L695.676 451.786z"/>
<path class="l5" d="M721.918 543.633L724.105 543.633L724.105 545.82L721.918 545.82L721.918 543.633z"/>
<path class="l5" d="M713.17 530.512L715.357 530.512L715.357 532.699L713.17 532.699L713.17 530.512z"/>
<path class="l5" d="M818.138 399.302L820.325 399.302L820.325 401.489L818.138 401.489L818.138 399.302z"/>
<path class="l5" d="M826.886 386.181L829.072 386.181L829.072 388.368L826.886 388.368L826.886 386.181z"/>
<path class="l5" d="M883.743 429.918L885.93 429.918L885.93 432.105L883.743 432.105L883.743 429.918z"/>
<path class="l5" d="M892.491 416.797L894.677 416.797L894.677 418.984L892.491 418.984L892.491 416.797z"/>
<path class="l5" d="M765.654 355.565L767.841 355.565L767.841 357.752L765.654 357.752L765.654 355.565z"/>
<path class="l5" d="M774.402 342.444L776.589 342.444L776.589 344.631L774.402 344.631L774.402 342.444z"/>
<path class="l5" d="M874.996 491.149L877.183 491.149L877.183 493.336L874.996 493.336L874.996 491.149z"/>
<path class="l5" d="M883.743 478.028L885.93 478.028L885.93 480.215L883.743 480.215L883.743 478.028z"/>
<path class="l5" d="M48.374 486.775L50.5609 486.775L50.5609 488.962L48.374 488.962L48.374 486.775z"/>
<path class="l5" d="M22.1321 582.996L24.3189 582.996L24.3189 585.183L22.1321 585.183L22.1321 582.996z"/>
<path class="l5" d="M490.114 460.533L492.301 460.533L492.301 462.72L490.114 462.72L490.114 460.533z"/>
<path class="l5" d="M490.114 552.38L492.301 552.38L492.301 554.567L490.114 554.567L490.114 552.38z"/>
<path class="l5" d="M490.114 639.853L492.301 639.853L492.301 642.04L490.114 642.04L490.114 639.853z"/>
<path class="l5" d="M22.1321 556.754L24.3189 556.754L24.3189 558.941L22.1321 558.941L22.1321 556.754z"/>
<path class="l5" d="M1067.44 604.864L1069.62 604.864L1069.62 607.051L1067.44 607.051L1067.44 604.864z"/>
<path class="l5" d="M1058.69 674.843L1060.88 674.843L1060.88 677.03L1058.69 677.03L1058.69 674.843z"/>
<path class="l5" d="M647.566 508.644L649.752 508.644L649.752 510.83L647.566 510.83L647.566 508.644z"/>
<path class="l5" d="M638.818 495.523L641.005 495.523L641.005 497.709L638.818 497.709L638.818 495.523z"/>
<path class="l5" d="M586.334 486.775L588.521 486.775L588.521 488.962L586.334 488.962L586.334 486.775z"/>
<path class="l5" d="M656.313 582.996L658.5 582.996L658.5 585.183L656.313 585.183L656.313 582.996z"/>
<path class="l5" d="M831.259 438.665L833.446 438.665L833.446 440.852L831.259 440.852L831.259 438.665z"/>
<path class="l5" d="M805.017 530.512L807.204 530.512L807.204 532.699L805.017 532.699L805.017 530.512z"/>
<path class="l5" d="M708.797 399.302L710.984 399.302L710.984 401.489L708.797 401.489L708.797 399.302z"/>
<path class="l5" d="M717.544 386.181L719.731 386.181L719.731 388.368L717.544 388.368L717.544 386.181z"/>
<path class="l5" d="M931.854 543.633L934.04 543.633L934.04 545.82L931.854 545.82L931.854 543.633z"/>
<path class="l5" d="M940.601 530.512L942.788 530.512L942.788 532.699L940.601 532.699L940.601 530.512z"/>
<path class="l5" d="M490.66 434.838L491.754 434.838L491.754 435.931L490.66 435.931L490.66 434.838z"/>
<path class="l5" d="M656.86 496.069L657.953 496.069L657.953 497.163L656.86 497.163L656.86 496.069z"/>
<path class="l5" d="M713.717 452.333L714.811 452.333L714.811 453.426L713.717 453.426L713.717 452.333z"/>
<path class="l5" d="M731.212 531.059L732.305 531.059L732.305 532.152L731.212 532.152L731.212 531.059z"/>
<path class="l5" d="M809.938 386.728L811.031 386.728L811.031 387.821L809.938 387.821L809.938 386.728z"/>
<path class="l5" d="M875.543 417.343L876.636 417.343L876.636 418.437L875.543 418.437L875.543 417.343z"/>
<path class="l5" d="M490.66 526.685L491.754 526.685L491.754 527.778L490.66 527.778L490.66 526.685z"/>
<path class="l5" d="M1059.24 439.212L1060.33 439.212L1060.33 440.305L1059.24 440.305L1059.24 439.212z"/>
<path class="l5" d="M490.66 614.158L491.754 614.158L491.754 615.252L490.66 615.252L490.66 614.158z"/>
<path class="l5" d="M1059.24 509.19L1060.33 509.19L1060.33 510.284L1059.24 510.284L1059.24 509.19z"/>
<path class="l5" d="M757.454 412.97L758.547 412.97L758.547 414.063L757.454 414.063L757.454 412.97z"/>
<path class="l5" d="M788.069 491.696L789.163 491.696L789.163 492.789L788.069 492.789L788.069 491.696z"/>
<path class="l5" d="M823.059 426.091L824.152 426.091L824.152 427.184L823.059 427.184L823.059 426.091z"/>
<path class="l5" d="M823.059 531.059L824.152 531.059L824.152 532.152L823.059 532.152L823.059 531.059z"/>
<path class="l5" d="M818.685 373.607L819.778 373.607L819.778 374.7L818.685 374.7L818.685 373.607z"/>
<path class="l5" d="M757.454 342.991L758.547 342.991L758.547 344.085L757.454 344.085L757.454 342.991z"/>
<path class="l5" d="M700.596 386.728L701.69 386.728L701.69 387.821L700.596 387.821L700.596 386.728z"/>
<path class="l5" d="M748.706 426.091L749.8 426.091L749.8 427.184L748.706 427.184L748.706 426.091z"/>
<path class="l5" d="M779.322 478.575L780.416 478.575L780.416 479.668L779.322 479.668L779.322 478.575z"/>
<path class="l5" d="M814.311 439.212L815.405 439.212L815.405 440.305L814.311 440.305L814.311 439.212z"/>
<path class="l5" d="M814.311 517.938L815.405 517.938L815.405 519.031L814.311 519.031L814.311 517.938z"/>
<path class="l5" d="M884.29 404.222L885.383 404.222L885.383 405.316L884.29 405.316L884.29 404.222z"/>
<path class="l5" d="M866.795 478.575L867.889 478.575L867.889 479.668L866.795 479.668L866.795 478.575z"/>
<path class="l5" d="M923.653 531.059L924.746 531.059L924.746 532.152L923.653 532.152L923.653 531.059z"/>
<text fill="#cccccc"  xml:space="preserve" font-size="4.54861" transform="translate(58.2148, 470.677)" >Vdd</text>
<text fill="#cccccc"  xml:space="preserve" font-size="4.54861" transform="translate(58.2148, 481.611)" >1.8</text>
<text fill="#cccccc"  xml:space="preserve" font-size="4.54861" transform="translate(31.9728, 566.898)" >Vss</text>
<text fill="#cccccc"  xml:space="preserve" font-size="4.54861" transform="translate(31.9728, 577.832)" >0</text>
<text fill="#cccccc"  xml:space="preserve" font-size="4.54861" transform="translate(499.955, 444.435)" >Vclk</text>
<text fill="#cccccc"  xml:space="preserve" font-size="4.54861" transform="translate(499.955, 455.369)" >1.8</text>
<text fill="#cccccc"  xml:space="preserve" font-size="4.54861" transform="translate(499.955, 536.282)" >Vinp</text>
<text fill="#cccccc"  xml:space="preserve" font-size="4.54861" transform="translate(499.955, 547.216)" >0.9</text>
<text fill="#cccccc"  xml:space="preserve" font-size="4.54861" transform="translate(499.955, 623.755)" >Vinm</text>
<text fill="#cccccc"  xml:space="preserve" font-size="4.54861" transform="translate(499.955, 634.689)" >0.9</text>
<text fill="#aaaa00"  xml:space="preserve" font-size="4.54861" transform="translate(1052.41, 445.529)" >1</text>
<text fill="#aaaa00"  xml:space="preserve" font-size="4.54861" transform="translate(1052.41, 464.117)" >2</text>
<text fill="#cccccc"  xml:space="preserve" font-size="4.54861" transform="translate(1066.34, 448.809)" >Rsw_p</text>
<text fill="#cccccc"  xml:space="preserve" font-size="4.54861" transform="translate(1066.34, 454.276)" >{Rsw</text>
<text fill="#cccccc"  xml:space="preserve" font-size="4.54861" transform="translate(1066.34, 459.743)" >m=1</text>
<text fill="#aaaa00"  xml:space="preserve" font-size="4.54861" transform="translate(1052.41, 515.507)" >1</text>
<text fill="#aaaa00"  xml:space="preserve" font-size="4.54861" transform="translate(1052.41, 534.095)" >2</text>
<text fill="#cccccc"  xml:space="preserve" font-size="4.54861" transform="translate(1066.34, 518.787)" >Rsw_n</text>
<text fill="#cccccc"  xml:space="preserve" font-size="4.54861" transform="translate(1066.34, 524.255)" >{Rsw</text>
<text fill="#cccccc"  xml:space="preserve" font-size="4.54861" transform="translate(1066.34, 529.722)" >m=1</text>
<text fill="#aaaa00"  xml:space="preserve" font-size="4.54861" transform="translate(1063.34, 585.486)" >1</text>
<text fill="#aaaa00"  xml:space="preserve" font-size="4.54861" transform="translate(1063.34, 604.074)" >2</text>
<text fill="#cccccc"  xml:space="preserve" font-size="4.54861" transform="translate(1075.09, 588.766)" >Ccdac_p</text>
<text fill="#cccccc"  xml:space="preserve" font-size="4.54861" transform="translate(1075.09, 594.233)" >{Cload</text>
<text fill="#cccccc"  xml:space="preserve" font-size="4.54861" transform="translate(1075.09, 599.7)" >m=1</text>
<text fill="#aaaa00"  xml:space="preserve" font-size="4.54861" transform="translate(1054.6, 655.464)" >1</text>
<text fill="#aaaa00"  xml:space="preserve" font-size="4.54861" transform="translate(1054.6, 674.052)" >2</text>
<text fill="#cccccc"  xml:space="preserve" font-size="4.54861" transform="translate(1066.34, 658.745)" >Ccdac_n</text>
<text fill="#cccccc"  xml:space="preserve" font-size="4.54861" transform="translate(1066.34, 664.212)" >{Cload</text>
<text fill="#cccccc"  xml:space="preserve" font-size="4.54861" transform="translate(1066.34, 669.679)" >m=1</text>
<text fill="#cccccc"  xml:space="preserve" font-size="4.54861" transform="translate(646.472, 487.625)" >XMtail</text>
<text fill="#ff0000"  xml:space="preserve" font-size="3.41146" transform="translate(636.818, 507.368)" >S</text>
<text fill="#ff0000"  xml:space="preserve" font-size="3.41146" transform="translate(635.818, 488.147)" >D</text>
<text fill="#ff0000"  xml:space="preserve" font-size="3.41146" transform="translate(636.912, 495.34)" >B</text>
<text fill="#ff0000"  xml:space="preserve" font-size="3.41146" transform="translate(653.033, 495.34)" >G</text>
<text fill="#cccccc"  xml:space="preserve" font-size="4.54861" transform="translate(611.538, 491.702)" >nfet_01v8</text>
<text fill="#aaaa00"  xml:space="preserve" font-size="4.54861" transform="translate(597.991, 506.76)" >1 x {Wtail / 0.15</text>
<text fill="#aaaa00"  xml:space="preserve" font-size="4.54861" transform="translate(622.991, 501.293)" >nf=1</text>
<text fill="#00ffcc"  xml:space="preserve" font-size="3.41146" transform="translate(627.538, 486.593)" >id=-</text>
<text fill="#ff7777"  xml:space="preserve" font-size="3.41146" transform="translate(625.538, 495.34)" >gm=-</text>
<text fill="#ff7777"  xml:space="preserve" font-size="1.59201" transform="translate(646.472, 505.715)" >vgs= -  </text>
<text fill="#ff7777"  xml:space="preserve" font-size="1.59201" transform="translate(646.472, 507.541)" >vds= -  </text>
<text fill="#cccccc"  xml:space="preserve" font-size="4.54861" transform="translate(570.867, 478.878)" >XM1</text>
<text fill="#ff0000"  xml:space="preserve" font-size="3.41146" transform="translate(588.521, 498.62)" >S</text>
<text fill="#ff0000"  xml:space="preserve" font-size="3.41146" transform="translate(588.521, 479.399)" >D</text>
<text fill="#ff0000"  xml:space="preserve" font-size="3.41146" transform="translate(587.428, 486.593)" >B</text>
<text fill="#ff0000"  xml:space="preserve" font-size="3.41146" transform="translate(571.307, 486.593)" >G</text>
<text fill="#cccccc"  xml:space="preserve" font-size="4.54861" transform="translate(591.801, 482.955)" >nfet_01v8</text>
<text fill="#aaaa00"  xml:space="preserve" font-size="4.54861" transform="translate(592.348, 498.013)" >1 x {Win / 0.15</text>
<text fill="#aaaa00"  xml:space="preserve" font-size="4.54861" transform="translate(592.348, 492.546)" >nf=1</text>
<text fill="#00ffcc"  xml:space="preserve" font-size="3.41146" transform="translate(591.801, 477.845)" >id=-</text>
<text fill="#ff7777"  xml:space="preserve" font-size="3.41146" transform="translate(591.801, 486.593)" >gm=-</text>
<text fill="#ff7777"  xml:space="preserve" font-size="1.59201" transform="translate(572.867, 496.968)" >vgs= -  </text>
<text fill="#ff7777"  xml:space="preserve" font-size="1.59201" transform="translate(572.867, 498.794)" >vds= -  </text>
<text fill="#cccccc"  xml:space="preserve" font-size="4.54861" transform="translate(663.967, 575.098)" >XM2</text>
<text fill="#ff0000"  xml:space="preserve" font-size="3.41146" transform="translate(654.313, 594.841)" >S</text>
<text fill="#ff0000"  xml:space="preserve" font-size="3.41146" transform="translate(653.313, 575.62)" >D</text>
<text fill="#ff0000"  xml:space="preserve" font-size="3.41146" transform="translate(654.406, 582.813)" >B</text>
<text fill="#ff0000"  xml:space="preserve" font-size="3.41146" transform="translate(670.527, 582.813)" >G</text>
<text fill="#cccccc"  xml:space="preserve" font-size="4.54861" transform="translate(629.033, 579.175)" >nfet_01v8</text>
<text fill="#aaaa00"  xml:space="preserve" font-size="4.54861" transform="translate(618.486, 594.233)" >1 x {Win / 0.15</text>
<text fill="#aaaa00"  xml:space="preserve" font-size="4.54861" transform="translate(640.486, 588.766)" >nf=1</text>
<text fill="#00ffcc"  xml:space="preserve" font-size="3.41146" transform="translate(645.033, 574.066)" >id=-</text>
<text fill="#ff7777"  xml:space="preserve" font-size="3.41146" transform="translate(643.033, 582.813)" >gm=-</text>
<text fill="#ff7777"  xml:space="preserve" font-size="1.59201" transform="translate(663.967, 593.189)" >vgs= -  </text>
<text fill="#ff7777"  xml:space="preserve" font-size="1.59201" transform="translate(663.967, 595.015)" >vds= -  </text>
<text fill="#cccccc"  xml:space="preserve" font-size="4.54861" transform="translate(747.187, 417.647)" >XMp1</text>
<text fill="#ff0000"  xml:space="preserve" font-size="3.41146" transform="translate(767.841, 437.389)" >D</text>
<text fill="#ff0000"  xml:space="preserve" font-size="3.41146" transform="translate(767.841, 418.168)" >S</text>
<text fill="#ff0000"  xml:space="preserve" font-size="3.41146" transform="translate(766.748, 425.361)" >B</text>
<text fill="#ff0000"  xml:space="preserve" font-size="3.41146" transform="translate(750.627, 425.361)" >G</text>
<text fill="#cccccc"  xml:space="preserve" font-size="4.54861" transform="translate(771.121, 421.723)" >pfet_01v8</text>
<text fill="#aaaa00"  xml:space="preserve" font-size="4.54861" transform="translate(771.668, 436.781)" >1 x {Wlat / 0.15</text>
<text fill="#aaaa00"  xml:space="preserve" font-size="4.54861" transform="translate(771.668, 431.314)" >nf=1</text>
<text fill="#00ffcc"  xml:space="preserve" font-size="3.41146" transform="translate(771.121, 416.614)" >id=-</text>
<text fill="#ff7777"  xml:space="preserve" font-size="3.41146" transform="translate(771.121, 425.361)" >gm=-</text>
<text fill="#ff7777"  xml:space="preserve" font-size="1.59201" transform="translate(752.187, 435.737)" >vgs= -  </text>
<text fill="#ff7777"  xml:space="preserve" font-size="1.59201" transform="translate(752.187, 437.563)" >vds= -  </text>
<text fill="#cccccc"  xml:space="preserve" font-size="4.54861" transform="translate(777.682, 483.251)" >XMp2</text>
<text fill="#ff0000"  xml:space="preserve" font-size="3.41146" transform="translate(767.028, 502.994)" >D</text>
<text fill="#ff0000"  xml:space="preserve" font-size="3.41146" transform="translate(768.028, 483.773)" >S</text>
<text fill="#ff0000"  xml:space="preserve" font-size="3.41146" transform="translate(768.121, 490.966)" >B</text>
<text fill="#ff0000"  xml:space="preserve" font-size="3.41146" transform="translate(784.242, 490.966)" >G</text>
<text fill="#cccccc"  xml:space="preserve" font-size="4.54861" transform="translate(742.748, 487.328)" >pfet_01v8</text>
<text fill="#aaaa00"  xml:space="preserve" font-size="4.54861" transform="translate(730.201, 502.386)" >1 x {Wlat / 0.15</text>
<text fill="#aaaa00"  xml:space="preserve" font-size="4.54861" transform="translate(754.201, 496.919)" >nf=1</text>
<text fill="#00ffcc"  xml:space="preserve" font-size="3.41146" transform="translate(758.748, 482.219)" >id=-</text>
<text fill="#ff7777"  xml:space="preserve" font-size="3.41146" transform="translate(756.748, 490.966)" >gm=-</text>
<text fill="#ff7777"  xml:space="preserve" font-size="1.59201" transform="translate(777.682, 501.342)" >vgs= -  </text>
<text fill="#ff7777"  xml:space="preserve" font-size="1.59201" transform="translate(777.682, 503.168)" >vds= -  </text>
<text fill="#cccccc"  xml:space="preserve" font-size="4.54861" transform="translate(812.792, 430.768)" >XMn1</text>
<text fill="#ff0000"  xml:space="preserve" font-size="3.41146" transform="translate(833.446, 450.51)" >S</text>
<text fill="#ff0000"  xml:space="preserve" font-size="3.41146" transform="translate(833.446, 431.289)" >D</text>
<text fill="#ff0000"  xml:space="preserve" font-size="3.41146" transform="translate(832.353, 438.482)" >B</text>
<text fill="#ff0000"  xml:space="preserve" font-size="3.41146" transform="translate(816.232, 438.482)" >G</text>
<text fill="#cccccc"  xml:space="preserve" font-size="4.54861" transform="translate(836.726, 434.844)" >nfet_01v8</text>
<text fill="#aaaa00"  xml:space="preserve" font-size="4.54861" transform="translate(837.273, 449.902)" >1 x {Wlatn / 0.15</text>
<text fill="#aaaa00"  xml:space="preserve" font-size="4.54861" transform="translate(837.273, 444.435)" >nf=1</text>
<text fill="#00ffcc"  xml:space="preserve" font-size="3.41146" transform="translate(836.726, 429.735)" >id=-</text>
<text fill="#ff7777"  xml:space="preserve" font-size="3.41146" transform="translate(836.726, 438.482)" >gm=-</text>
<text fill="#ff7777"  xml:space="preserve" font-size="1.59201" transform="translate(817.792, 448.858)" >vgs= -  </text>
<text fill="#ff7777"  xml:space="preserve" font-size="1.59201" transform="translate(817.792, 450.684)" >vds= -  </text>
<text fill="#cccccc"  xml:space="preserve" font-size="4.54861" transform="translate(812.671, 522.614)" >XMn2</text>
<text fill="#ff0000"  xml:space="preserve" font-size="3.41146" transform="translate(803.017, 542.357)" >S</text>
<text fill="#ff0000"  xml:space="preserve" font-size="3.41146" transform="translate(802.017, 523.136)" >D</text>
<text fill="#ff0000"  xml:space="preserve" font-size="3.41146" transform="translate(803.111, 530.329)" >B</text>
<text fill="#ff0000"  xml:space="preserve" font-size="3.41146" transform="translate(819.232, 530.329)" >G</text>
<text fill="#cccccc"  xml:space="preserve" font-size="4.54861" transform="translate(777.737, 526.691)" >nfet_01v8</text>
<text fill="#aaaa00"  xml:space="preserve" font-size="4.54861" transform="translate(762.19, 541.749)" >1 x {Wlatn / 0.15</text>
<text fill="#aaaa00"  xml:space="preserve" font-size="4.54861" transform="translate(789.19, 536.282)" >nf=1</text>
<text fill="#00ffcc"  xml:space="preserve" font-size="3.41146" transform="translate(793.737, 521.582)" >id=-</text>
<text fill="#ff7777"  xml:space="preserve" font-size="3.41146" transform="translate(791.737, 530.329)" >gm=-</text>
<text fill="#ff7777"  xml:space="preserve" font-size="1.59201" transform="translate(812.671, 540.705)" >vgs= -  </text>
<text fill="#ff7777"  xml:space="preserve" font-size="1.59201" transform="translate(812.671, 542.531)" >vds= -  </text>
<text fill="#cccccc"  xml:space="preserve" font-size="4.54861" transform="translate(703.33, 443.889)" >XMr1</text>
<text fill="#ff0000"  xml:space="preserve" font-size="3.41146" transform="translate(692.676, 463.631)" >D</text>
<text fill="#ff0000"  xml:space="preserve" font-size="3.41146" transform="translate(693.676, 444.41)" >S</text>
<text fill="#ff0000"  xml:space="preserve" font-size="3.41146" transform="translate(693.769, 451.603)" >B</text>
<text fill="#ff0000"  xml:space="preserve" font-size="3.41146" transform="translate(709.89, 451.603)" >G</text>
<text fill="#cccccc"  xml:space="preserve" font-size="4.54861" transform="translate(668.396, 447.965)" >pfet_01v8</text>
<text fill="#aaaa00"  xml:space="preserve" font-size="4.54861" transform="translate(655.849, 463.023)" >1 x {Wrst / 0.15</text>
<text fill="#aaaa00"  xml:space="preserve" font-size="4.54861" transform="translate(679.849, 457.556)" >nf=1</text>
<text fill="#00ffcc"  xml:space="preserve" font-size="3.41146" transform="translate(684.396, 442.856)" >id=-</text>
<text fill="#ff7777"  xml:space="preserve" font-size="3.41146" transform="translate(682.396, 451.603)" >gm=-</text>
<text fill="#ff7777"  xml:space="preserve" font-size="1.59201" transform="translate(703.33, 461.979)" >vgs= -  </text>
<text fill="#ff7777"  xml:space="preserve" font-size="1.59201" transform="translate(703.33, 463.805)" >vds= -  </text>
<text fill="#cccccc"  xml:space="preserve" font-size="4.54861" transform="translate(720.824, 522.614)" >XMr2</text>
<text fill="#ff0000"  xml:space="preserve" font-size="3.41146" transform="translate(710.17, 542.357)" >D</text>
<text fill="#ff0000"  xml:space="preserve" font-size="3.41146" transform="translate(711.17, 523.136)" >S</text>
<text fill="#ff0000"  xml:space="preserve" font-size="3.41146" transform="translate(711.264, 530.329)" >B</text>
<text fill="#ff0000"  xml:space="preserve" font-size="3.41146" transform="translate(727.385, 530.329)" >G</text>
<text fill="#cccccc"  xml:space="preserve" font-size="4.54861" transform="translate(685.89, 526.691)" >pfet_01v8</text>
<text fill="#aaaa00"  xml:space="preserve" font-size="4.54861" transform="translate(673.344, 541.749)" >1 x {Wrst / 0.15</text>
<text fill="#aaaa00"  xml:space="preserve" font-size="4.54861" transform="translate(697.344, 536.282)" >nf=1</text>
<text fill="#00ffcc"  xml:space="preserve" font-size="3.41146" transform="translate(701.89, 521.582)" >id=-</text>
<text fill="#ff7777"  xml:space="preserve" font-size="3.41146" transform="translate(699.89, 530.329)" >gm=-</text>
<text fill="#ff7777"  xml:space="preserve" font-size="1.59201" transform="translate(720.824, 540.705)" >vgs= -  </text>
<text fill="#ff7777"  xml:space="preserve" font-size="1.59201" transform="translate(720.824, 542.531)" >vds= -  </text>
<text fill="#cccccc"  xml:space="preserve" font-size="4.54861" transform="translate(809.419, 378.284)" >XMr3</text>
<text fill="#ff0000"  xml:space="preserve" font-size="3.41146" transform="translate(829.072, 398.026)" >D</text>
<text fill="#ff0000"  xml:space="preserve" font-size="3.41146" transform="translate(829.072, 378.805)" >S</text>
<text fill="#ff0000"  xml:space="preserve" font-size="3.41146" transform="translate(827.979, 385.998)" >B</text>
<text fill="#ff0000"  xml:space="preserve" font-size="3.41146" transform="translate(811.858, 385.998)" >G</text>
<text fill="#cccccc"  xml:space="preserve" font-size="4.54861" transform="translate(832.353, 382.36)" >pfet_01v8</text>
<text fill="#aaaa00"  xml:space="preserve" font-size="4.54861" transform="translate(832.899, 397.418)" >1 x {Wrst / 0.15</text>
<text fill="#aaaa00"  xml:space="preserve" font-size="4.54861" transform="translate(832.899, 391.951)" >nf=1</text>
<text fill="#00ffcc"  xml:space="preserve" font-size="3.41146" transform="translate(832.353, 377.251)" >id=-</text>
<text fill="#ff7777"  xml:space="preserve" font-size="3.41146" transform="translate(832.353, 385.998)" >gm=-</text>
<text fill="#ff7777"  xml:space="preserve" font-size="1.59201" transform="translate(813.419, 396.374)" >vgs= -  </text>
<text fill="#ff7777"  xml:space="preserve" font-size="1.59201" transform="translate(813.419, 398.2)" >vds= -  </text>
<text fill="#cccccc"  xml:space="preserve" font-size="4.54861" transform="translate(875.023, 408.899)" >XMr4</text>
<text fill="#ff0000"  xml:space="preserve" font-size="3.41146" transform="translate(894.677, 428.642)" >D</text>
<text fill="#ff0000"  xml:space="preserve" font-size="3.41146" transform="translate(894.677, 409.421)" >S</text>
<text fill="#ff0000"  xml:space="preserve" font-size="3.41146" transform="translate(893.584, 416.614)" >B</text>
<text fill="#ff0000"  xml:space="preserve" font-size="3.41146" transform="translate(877.463, 416.614)" >G</text>
<text fill="#cccccc"  xml:space="preserve" font-size="4.54861" transform="translate(897.958, 412.976)" >pfet_01v8</text>
<text fill="#aaaa00"  xml:space="preserve" font-size="4.54861" transform="translate(898.504, 428.034)" >1 x {Wrst / 0.15</text>
<text fill="#aaaa00"  xml:space="preserve" font-size="4.54861" transform="translate(898.504, 422.567)" >nf=1</text>
<text fill="#00ffcc"  xml:space="preserve" font-size="3.41146" transform="translate(897.958, 407.867)" >id=-</text>
<text fill="#ff7777"  xml:space="preserve" font-size="3.41146" transform="translate(897.958, 416.614)" >gm=-</text>
<text fill="#ff7777"  xml:space="preserve" font-size="1.59201" transform="translate(879.023, 426.99)" >vgs= -  </text>
<text fill="#ff7777"  xml:space="preserve" font-size="1.59201" transform="translate(879.023, 428.816)" >vds= -  </text>
<text fill="#cccccc"  xml:space="preserve" font-size="4.54861" transform="translate(752.935, 334.547)" >XMbp1</text>
<text fill="#ff0000"  xml:space="preserve" font-size="3.41146" transform="translate(776.589, 354.289)" >D</text>
<text fill="#ff0000"  xml:space="preserve" font-size="3.41146" transform="translate(776.589, 335.069)" >S</text>
<text fill="#ff0000"  xml:space="preserve" font-size="3.41146" transform="translate(775.495, 342.262)" >B</text>
<text fill="#ff0000"  xml:space="preserve" font-size="3.41146" transform="translate(759.374, 342.262)" >G</text>
<text fill="#cccccc"  xml:space="preserve" font-size="4.54861" transform="translate(779.869, 338.624)" >pfet_01v8</text>
<text fill="#aaaa00"  xml:space="preserve" font-size="4.54861" transform="translate(780.416, 353.682)" >1 x 2u / 0.15u</text>
<text fill="#aaaa00"  xml:space="preserve" font-size="4.54861" transform="translate(780.416, 348.215)" >nf=1</text>
<text fill="#00ffcc"  xml:space="preserve" font-size="3.41146" transform="translate(779.869, 333.514)" >id=-</text>
<text fill="#ff7777"  xml:space="preserve" font-size="3.41146" transform="translate(779.869, 342.262)" >gm=-</text>
<text fill="#ff7777"  xml:space="preserve" font-size="1.59201" transform="translate(760.935, 352.637)" >vgs= -  </text>
<text fill="#ff7777"  xml:space="preserve" font-size="1.59201" transform="translate(760.935, 354.463)" >vds= -  </text>
<text fill="#cccccc"  xml:space="preserve" font-size="4.54861" transform="translate(696.077, 378.284)" >XMbn1</text>
<text fill="#ff0000"  xml:space="preserve" font-size="3.41146" transform="translate(719.731, 398.026)" >S</text>
<text fill="#ff0000"  xml:space="preserve" font-size="3.41146" transform="translate(719.731, 378.805)" >D</text>
<text fill="#ff0000"  xml:space="preserve" font-size="3.41146" transform="translate(718.638, 385.998)" >B</text>
<text fill="#ff0000"  xml:space="preserve" font-size="3.41146" transform="translate(702.517, 385.998)" >G</text>
<text fill="#cccccc"  xml:space="preserve" font-size="4.54861" transform="translate(723.011, 382.36)" >nfet_01v8</text>
<text fill="#aaaa00"  xml:space="preserve" font-size="4.54861" transform="translate(723.558, 397.418)" >1 x 1u / 0.15u</text>
<text fill="#aaaa00"  xml:space="preserve" font-size="4.54861" transform="translate(723.558, 391.951)" >nf=1</text>
<text fill="#00ffcc"  xml:space="preserve" font-size="3.41146" transform="translate(723.011, 377.251)" >id=-</text>
<text fill="#ff7777"  xml:space="preserve" font-size="3.41146" transform="translate(723.011, 385.998)" >gm=-</text>
<text fill="#ff7777"  xml:space="preserve" font-size="1.59201" transform="translate(704.077, 396.374)" >vgs= -  </text>
<text fill="#ff7777"  xml:space="preserve" font-size="1.59201" transform="translate(704.077, 398.2)" >vds= -  </text>
<text fill="#cccccc"  xml:space="preserve" font-size="4.54861" transform="translate(862.276, 470.131)" >XMbp2</text>
<text fill="#ff0000"  xml:space="preserve" font-size="3.41146" transform="translate(885.93, 489.873)" >D</text>
<text fill="#ff0000"  xml:space="preserve" font-size="3.41146" transform="translate(885.93, 470.652)" >S</text>
<text fill="#ff0000"  xml:space="preserve" font-size="3.41146" transform="translate(884.837, 477.845)" >B</text>
<text fill="#ff0000"  xml:space="preserve" font-size="3.41146" transform="translate(868.716, 477.845)" >G</text>
<text fill="#cccccc"  xml:space="preserve" font-size="4.54861" transform="translate(889.21, 474.207)" >pfet_01v8</text>
<text fill="#aaaa00"  xml:space="preserve" font-size="4.54861" transform="translate(889.757, 489.265)" >1 x 2u / 0.15u</text>
<text fill="#aaaa00"  xml:space="preserve" font-size="4.54861" transform="translate(889.757, 483.798)" >nf=1</text>
<text fill="#00ffcc"  xml:space="preserve" font-size="3.41146" transform="translate(889.21, 469.098)" >id=-</text>
<text fill="#ff7777"  xml:space="preserve" font-size="3.41146" transform="translate(889.21, 477.845)" >gm=-</text>
<text fill="#ff7777"  xml:space="preserve" font-size="1.59201" transform="translate(870.276, 488.221)" >vgs= -  </text>
<text fill="#ff7777"  xml:space="preserve" font-size="1.59201" transform="translate(870.276, 490.047)" >vds= -  </text>
<text fill="#cccccc"  xml:space="preserve" font-size="4.54861" transform="translate(919.134, 522.614)" >XMbn2</text>
<text fill="#ff0000"  xml:space="preserve" font-size="3.41146" transform="translate(942.788, 542.357)" >S</text>
<text fill="#ff0000"  xml:space="preserve" font-size="3.41146" transform="translate(942.788, 523.136)" >D</text>
<text fill="#ff0000"  xml:space="preserve" font-size="3.41146" transform="translate(941.694, 530.329)" >B</text>
<text fill="#ff0000"  xml:space="preserve" font-size="3.41146" transform="translate(925.573, 530.329)" >G</text>
<text fill="#cccccc"  xml:space="preserve" font-size="4.54861" transform="translate(946.068, 526.691)" >nfet_01v8</text>
<text fill="#aaaa00"  xml:space="preserve" font-size="4.54861" transform="translate(946.615, 541.749)" >1 x 1u / 0.15u</text>
<text fill="#aaaa00"  xml:space="preserve" font-size="4.54861" transform="translate(946.615, 536.282)" >nf=1</text>
<text fill="#00ffcc"  xml:space="preserve" font-size="3.41146" transform="translate(946.068, 521.582)" >id=-</text>
<text fill="#ff7777"  xml:space="preserve" font-size="3.41146" transform="translate(946.068, 530.329)" >gm=-</text>
<text fill="#ff7777"  xml:space="preserve" font-size="1.59201" transform="translate(927.134, 540.705)" >vgs= -  </text>
<text fill="#ff7777"  xml:space="preserve" font-size="1.59201" transform="translate(927.134, 542.531)" >vds= -  </text>
<text fill="#00ddff"  xml:space="preserve" font-size="4.54861" transform="translate(44.0004, 450.449)" >VDD</text>
<text fill="#00ddff"  xml:space="preserve" font-size="4.54861" transform="translate(752.533, 428.581)" >VDD</text>
<text fill="#00ddff"  xml:space="preserve" font-size="4.54861" transform="translate(761.281, 415.46)" >VDD</text>
<text fill="#00ddff"  xml:space="preserve" font-size="4.54861" transform="translate(774.402, 494.186)" >VDD</text>
<text fill="#00ddff"  xml:space="preserve" font-size="4.54861" transform="translate(765.654, 481.065)" >VDD</text>
<text fill="#00ddff"  xml:space="preserve" font-size="4.54861" transform="translate(700.049, 454.823)" >VDD</text>
<text fill="#00ddff"  xml:space="preserve" font-size="4.54861" transform="translate(691.302, 441.702)" >VDD</text>
<text fill="#00ddff"  xml:space="preserve" font-size="4.54861" transform="translate(717.544, 533.549)" >VDD</text>
<text fill="#00ddff"  xml:space="preserve" font-size="4.54861" transform="translate(708.797, 520.428)" >VDD</text>
<text fill="#00ddff"  xml:space="preserve" font-size="4.54861" transform="translate(813.765, 389.218)" >VDD</text>
<text fill="#00ddff"  xml:space="preserve" font-size="4.54861" transform="translate(822.512, 376.097)" >VDD</text>
<text fill="#00ddff"  xml:space="preserve" font-size="4.54861" transform="translate(879.37, 419.833)" >VDD</text>
<text fill="#00ddff"  xml:space="preserve" font-size="4.54861" transform="translate(888.117, 406.712)" >VDD</text>
<text fill="#00ddff"  xml:space="preserve" font-size="4.54861" transform="translate(761.281, 345.481)" >VDD</text>
<text fill="#00ddff"  xml:space="preserve" font-size="4.54861" transform="translate(770.028, 332.36)" >VDD</text>
<text fill="#00ddff"  xml:space="preserve" font-size="4.54861" transform="translate(870.622, 481.065)" >VDD</text>
<text fill="#00ddff"  xml:space="preserve" font-size="4.54861" transform="translate(879.37, 467.944)" >VDD</text>
<text fill="#00ddff"  xml:space="preserve" font-size="4.54861" transform="translate(52.7477, 494.186)" >GND</text>
<text fill="#00ddff"  xml:space="preserve" font-size="4.54861" transform="translate(26.5057, 590.406)" >GND</text>
<text fill="#00ddff"  xml:space="preserve" font-size="4.54861" transform="translate(494.487, 467.944)" >GND</text>
<text fill="#00ddff"  xml:space="preserve" font-size="4.54861" transform="translate(494.487, 559.791)" >GND</text>
<text fill="#00ddff"  xml:space="preserve" font-size="4.54861" transform="translate(494.487, 647.264)" >GND</text>
<text fill="#00ddff"  xml:space="preserve" font-size="4.54861" transform="translate(26.5057, 564.164)" >VSS</text>
<text fill="#00ddff"  xml:space="preserve" font-size="4.54861" transform="translate(1071.81, 612.274)" >VSS</text>
<text fill="#00ddff"  xml:space="preserve" font-size="4.54861" transform="translate(1063.06, 682.253)" >VSS</text>
<text fill="#00ddff"  xml:space="preserve" font-size="4.54861" transform="translate(651.939, 516.054)" >VSS</text>
<text fill="#00ddff"  xml:space="preserve" font-size="4.54861" transform="translate(643.192, 502.933)" >VSS</text>
<text fill="#00ddff"  xml:space="preserve" font-size="4.54861" transform="translate(590.708, 494.186)" >VSS</text>
<text fill="#00ddff"  xml:space="preserve" font-size="4.54861" transform="translate(660.687, 590.406)" >VSS</text>
<text fill="#00ddff"  xml:space="preserve" font-size="4.54861" transform="translate(835.633, 446.075)" >VSS</text>
<text fill="#00ddff"  xml:space="preserve" font-size="4.54861" transform="translate(809.391, 537.922)" >VSS</text>
<text fill="#00ddff"  xml:space="preserve" font-size="4.54861" transform="translate(713.17, 406.712)" >VSS</text>
<text fill="#00ddff"  xml:space="preserve" font-size="4.54861" transform="translate(721.918, 393.591)" >VSS</text>
<text fill="#00ddff"  xml:space="preserve" font-size="4.54861" transform="translate(936.227, 551.043)" >VSS</text>
<text fill="#00ddff"  xml:space="preserve" font-size="4.54861" transform="translate(944.974, 537.922)" >VSS</text>
<text fill="#00ddff"  xml:space="preserve" font-size="7.5052" transform="translate(476.927, 438.646)" >clk</text>
<text fill="#00ddff"  xml:space="preserve" font-size="7.5052" transform="translate(643.126, 499.877)" >clk</text>
<text fill="#00ddff"  xml:space="preserve" font-size="7.5052" transform="translate(699.984, 456.141)" >clk</text>
<text fill="#00ddff"  xml:space="preserve" font-size="7.5052" transform="translate(717.478, 534.866)" >clk</text>
<text fill="#00ddff"  xml:space="preserve" font-size="7.5052" transform="translate(796.204, 390.536)" >clk</text>
<text fill="#00ddff"  xml:space="preserve" font-size="7.5052" transform="translate(861.809, 421.151)" >clk</text>
<text fill="#00ddff"  xml:space="preserve" font-size="7.5052" transform="translate(475.927, 530.493)" >inp</text>
<text fill="#00ddff"  xml:space="preserve" font-size="7.5052" transform="translate(1044.5, 443.02)" >inp</text>
<text fill="#00ddff"  xml:space="preserve" font-size="7.5052" transform="translate(473.927, 617.966)" >inm</text>
<text fill="#00ddff"  xml:space="preserve" font-size="7.5052" transform="translate(1042.5, 512.998)" >inm</text>
<text fill="#00ddff"  xml:space="preserve" font-size="7.5052" transform="translate(736.72, 416.778)" >outn</text>
<text fill="#00ddff"  xml:space="preserve" font-size="7.5052" transform="translate(767.336, 495.503)" >outn</text>
<text fill="#00ddff"  xml:space="preserve" font-size="7.5052" transform="translate(802.325, 429.899)" >outn</text>
<text fill="#00ddff"  xml:space="preserve" font-size="7.5052" transform="translate(802.325, 534.866)" >outn</text>
<text fill="#00ddff"  xml:space="preserve" font-size="7.5052" transform="translate(797.951, 377.415)" >outn</text>
<text fill="#00ddff"  xml:space="preserve" font-size="7.5052" transform="translate(736.72, 346.799)" >outn</text>
<text fill="#00ddff"  xml:space="preserve" font-size="7.5052" transform="translate(679.863, 390.536)" >outn</text>
<text fill="#00ddff"  xml:space="preserve" font-size="7.5052" transform="translate(727.973, 429.899)" >outp</text>
<text fill="#00ddff"  xml:space="preserve" font-size="7.5052" transform="translate(758.589, 482.382)" >outp</text>
<text fill="#00ddff"  xml:space="preserve" font-size="7.5052" transform="translate(793.578, 443.02)" >outp</text>
<text fill="#00ddff"  xml:space="preserve" font-size="7.5052" transform="translate(793.578, 521.745)" >outp</text>
<text fill="#00ddff"  xml:space="preserve" font-size="7.5052" transform="translate(863.556, 408.03)" >outp</text>
<text fill="#00ddff"  xml:space="preserve" font-size="7.5052" transform="translate(846.062, 482.382)" >outp</text>
<text fill="#00ddff"  xml:space="preserve" font-size="7.5052" transform="translate(902.919, 534.866)" >outp</text>
<path class="l1" d="M897.958 466L1059.78 466"/>
<path class="l1" d="M897.958 466L897.958 509.737"/>
<path class="l1" d="M897.958 579.716L1068.53 579.716"/>
<path class="l1" d="M897.958 509.737L897.958 579.716"/>
<path class="l1" d="M569.933 487.869L897.958 487.869"/>
<path class="l1" d="M897.958 487.869L897.958 509.737"/>
<path class="l1" d="M932.947 535.979L1059.78 535.979"/>
<path class="l1" d="M932.947 535.979L932.947 588.463"/>
<path class="l1" d="M932.947 649.694L1059.78 649.694"/>
<path class="l1" d="M932.947 588.463L932.947 649.694"/>
<path class="l1" d="M674.901 584.089L932.947 584.089"/>
<path class="l1" d="M932.947 584.089L932.947 588.463"/>
<path class="l1" d="M631.164 483.495L648.659 483.495"/>
<path class="l1" d="M631.164 483.495L631.164 527.232"/>
<path class="l1" d="M578.68 500.99L631.164 500.99"/>
<path class="l1" d="M631.164 500.99L631.164 527.232"/>
<path class="l1" d="M631.164 597.21L666.154 597.21"/>
<path class="l1" d="M631.164 527.232L631.164 597.21"/>
<path class="l1" d="M578.68 474.748L701.143 474.748"/>
<path class="l1" d="M701.143 457.253L701.143 474.748"/>
<path class="l1" d="M701.143 452.879L823.605 452.879"/>
<path class="l1" d="M701.143 452.879L701.143 457.253"/>
<path class="l1" d="M701.143 439.758L705.517 439.758"/>
<path class="l1" d="M701.143 439.758L701.143 457.253"/>
<path class="l1" d="M666.154 570.968L736.132 570.968"/>
<path class="l1" d="M736.132 544.726L736.132 570.968"/>
<path class="l1" d="M736.132 544.726L814.858 544.726"/>
<path class="l1" d="M723.011 518.484L736.132 518.484"/>
<path class="l1" d="M736.132 518.484L736.132 544.726"/>
<path class="l1" d="M709.89 330.417L766.748 330.417"/>
<path class="l1" d="M709.89 330.417L709.89 374.154"/>
<path class="l1" d="M876.089 466L932.947 466"/>
<path class="l1" d="M932.947 466L932.947 518.484"/>
<circle class="l1" cx="701.143" cy="457.253" r="1.61825"/>
<circle class="l1" cx="701.143" cy="452.879" r="1.61825"/>
<circle class="l1" cx="701.143" cy="457.253" r="1.61825"/>
<circle class="l1" cx="701.143" cy="452.879" r="1.61825"/>
<circle class="l1" cx="701.143" cy="457.253" r="1.61825"/>
<circle class="l1" cx="631.164" cy="527.232" r="1.61825"/>
<circle class="l1" cx="631.164" cy="500.99" r="1.61825"/>
<circle class="l1" cx="631.164" cy="527.232" r="1.61825"/>
<circle class="l1" cx="631.164" cy="500.99" r="1.61825"/>
<circle class="l1" cx="631.164" cy="527.232" r="1.61825"/>
<circle class="l1" cx="932.947" cy="584.089" r="1.61825"/>
<circle class="l1" cx="897.958" cy="487.869" r="1.61825"/>
<circle class="l1" cx="932.947" cy="466" r="1.61825"/>
<circle class="l1" cx="736.132" cy="544.726" r="1.61825"/>
<circle class="l1" cx="736.132" cy="544.726" r="1.61825"/>
<circle class="l1" cx="736.132" cy="544.726" r="1.61825"/>
<circle class="l1" cx="932.947" cy="466" r="1.61825"/>
<circle class="l1" cx="932.947" cy="584.089" r="1.61825"/>
<circle class="l1" cx="932.947" cy="588.463" r="1.61825"/>
<circle class="l1" cx="932.947" cy="588.463" r="1.61825"/>
<circle class="l1" cx="932.947" cy="588.463" r="1.61825"/>
<circle class="l1" cx="897.958" cy="487.869" r="1.61825"/>
<circle class="l1" cx="897.958" cy="509.737" r="1.61825"/>
<circle class="l1" cx="897.958" cy="509.737" r="1.61825"/>
<circle class="l1" cx="897.958" cy="466" r="1.61825"/>
<circle class="l1" cx="897.958" cy="509.737" r="1.61825"/>
<circle class="l1" cx="897.958" cy="466" r="1.61825"/>
<text fill="#cccccc"  xml:space="preserve" font-size="13.6458" transform="translate(31.9728, 312.192)" >SKY130 SAR ADC — StrongARM Comparator with CDAC Loading</text>
<text fill="#cccccc"  xml:space="preserve" font-size="9.09721" transform="translate(31.9728, 325.556)" >=== CDAC Loading Model ===</text>
<text fill="#cccccc"  xml:space="preserve" font-size="9.09721" transform="translate(31.9728, 338.677)" >=== StrongARM Latch Comparator ===</text>
<text fill="#cccccc"  xml:space="preserve" font-size="9.09721" transform="translate(31.9728, 351.798)" >=== Measurements ===</text>
</svg>
